# xmcd
#
# Track frame offsets: 
#        150
#        16155
#        34085
#        49006
#        66505
#
# Disc length: 1127 seconds
#
# Revision: 0
# Processed by: cddbd v1.5.2PL0 Copyright (c) Steve Scherf et al.
# Submitted via: ExactAudioCopy v0.99pb3
#
DISCID=3b046505
DTITLE=Matt Hill - Demonstration Product
DYEAR=1999
DGENRE=Country
TTITLE0=Bitter
TTITLE1=Real Romantic Soul
TTITLE2=Somewhere Between
TTITLE3=Chasing @ My Tears
TTITLE4=Postcards to Broken Hearts
EXTD=
EXTT0=
EXTT1=
EXTT2=
EXTT3=
EXTT4=
PLAYORDER=
